<svg width="199" height="129" viewBox="0 0 199 129" fill="none" xmlns="http://www.w3.org/2000/svg">
<path fill-rule="evenodd" clip-rule="evenodd" d="M5.72582 107.404V113.436H3.30258V99.3809H5.72582V105.218H6.89836L10.2401 99.3809H12.1357V101.04C11.5885 101.919 9.30206 105.686 8.89167 106.33C9.57565 107.502 11.6081 110.82 12.2334 111.835V113.436H10.2987C9.71245 112.421 7.11332 107.911 6.83973 107.404H5.72582Z" fill="white"/>
<path fill-rule="evenodd" clip-rule="evenodd" d="M15.4774 109.005C15.4774 110.312 16.5522 111.406 17.8811 111.406C19.2295 111.406 20.3043 110.312 20.3043 109.005V103.831C20.3043 102.504 19.2295 101.411 17.8811 101.411C16.5522 101.411 15.4774 102.504 15.4774 103.831V109.005ZM13.0346 103.734C13.0346 101.079 15.2038 99.1074 17.8811 99.1074C20.5779 99.1074 22.7471 101.079 22.7471 103.734V109.083C22.7471 111.737 20.5779 113.709 17.8811 113.709C15.2038 113.709 13.0346 111.737 13.0346 109.083V103.734Z" fill="white"/>
<path fill-rule="evenodd" clip-rule="evenodd" d="M26.9683 101.567V106.233H28.3949C29.9973 106.213 30.7204 104.905 30.74 103.89C30.74 102.895 30.0169 101.567 28.3949 101.567H26.9683ZM26.9683 108.419V113.436H24.545V99.3809H28.7857C31.5412 99.3809 33.3 101.665 33.3 103.91C33.2804 106.213 31.4435 108.419 28.7857 108.419H26.9683Z" fill="white"/>
<path fill-rule="evenodd" clip-rule="evenodd" d="M41.2537 101.567H37.1303V113.436H34.707V99.3809H43.6769V113.436H41.2537V101.567Z" fill="white"/>
<path fill-rule="evenodd" clip-rule="evenodd" d="M47.9176 109.005C47.9176 110.312 48.9924 111.406 50.3213 111.406C51.6697 111.406 52.764 110.312 52.764 109.005V103.831C52.764 102.504 51.6697 101.411 50.3213 101.411C48.9924 101.411 47.9176 102.504 47.9176 103.831V109.005ZM45.4943 103.734C45.4943 101.079 47.6635 99.1074 50.3213 99.1074C53.0181 99.1074 55.1873 101.079 55.1873 103.734V109.083C55.1873 111.737 53.0181 113.709 50.3213 113.709C47.6635 113.709 45.4943 111.737 45.4943 109.083V103.734Z" fill="white"/>
<path fill-rule="evenodd" clip-rule="evenodd" d="M59.4281 101.567V106.233H60.8546C62.4571 106.213 63.1802 104.905 63.1997 103.89C63.1997 102.895 62.4767 101.567 60.8546 101.567H59.4281ZM59.4281 108.419V113.436H56.9853V99.3809H61.2259C63.9814 99.3809 65.7402 101.665 65.7402 103.91C65.7207 106.213 63.9032 108.419 61.2259 108.419H59.4281Z" fill="white"/>
<path fill-rule="evenodd" clip-rule="evenodd" d="M68.4565 107.365H71.5051L69.9612 101.704L68.4565 107.365ZM72.0718 109.473H67.8702L66.8149 113.436H64.7239V111.659C65.1734 110.234 67.9288 101.294 68.4956 99.3809H71.4465C71.8959 100.825 74.8859 110.605 75.2181 111.659V113.436H73.1466L72.0718 109.473Z" fill="white"/>
<path fill-rule="evenodd" clip-rule="evenodd" d="M83.6995 112.811C84.3835 112.987 85.1065 113.514 85.5169 114.119C85.7514 114.49 86.0055 114.9 86.2986 115.29V116.872H84.4616L83.2891 114.9C82.7615 114.041 82.1947 113.651 81.2176 113.651H80.9636C78.5208 113.651 76.3711 111.874 76.3711 109.317V99.3809H78.7944V109.122C78.7944 110.41 79.791 111.347 80.9636 111.347C82.1557 111.328 83.1328 110.391 83.1328 109.102V99.3809H85.5756V109.317C85.5756 110.859 84.7743 112.069 83.6995 112.811Z" fill="white"/>
<path fill-rule="evenodd" clip-rule="evenodd" d="M94.5064 113.436V111.796C94.3892 111.991 93.6857 113.065 93.4707 113.377C93.0212 113.573 92.4936 113.69 91.8878 113.69C89.6013 113.69 87.7057 111.913 87.7057 109.571V99.3809H90.129V109.18C90.129 110.469 91.1061 111.406 92.2982 111.406C93.4707 111.386 94.4674 110.449 94.4674 109.161V99.3809H96.8906V113.436H94.5064Z" fill="white"/>
<path fill-rule="evenodd" clip-rule="evenodd" d="M103.73 101.567C102.206 101.567 101.483 102.817 101.483 103.832V103.871C101.483 105.003 102.46 106.057 103.73 106.057H105.313V101.567H103.73ZM100.115 113.436H98.1999V111.835C98.7276 110.976 99.6852 109.415 100.135 108.673C100.389 108.263 101.073 107.599 101.757 107.423C99.9392 106.935 98.923 105.257 98.923 103.656C98.923 101.372 100.74 99.3809 103.203 99.3809H107.737V113.436H105.313V108.243H104.453C103.457 108.243 102.949 108.556 102.46 109.454L100.115 113.436Z" fill="white"/>
<path fill-rule="evenodd" clip-rule="evenodd" d="M117.195 101.567V106.233H118.622C120.224 106.213 120.947 104.905 120.967 103.89C120.967 102.895 120.244 101.567 118.622 101.567H117.195ZM117.195 108.419V113.436H114.772V99.3809H118.993C121.748 99.3809 123.527 101.665 123.527 103.91C123.507 106.213 121.67 108.419 118.993 108.419H117.195Z" fill="white"/>
<path fill-rule="evenodd" clip-rule="evenodd" d="M126.224 107.365H129.292L127.728 101.704L126.224 107.365ZM129.839 109.473H125.657L124.582 113.436H122.491V111.659C122.94 110.234 125.715 101.294 126.263 99.3809H129.233C129.663 100.825 132.653 110.605 133.005 111.659V113.436H130.914L129.839 109.473Z" fill="white"/>
<path fill-rule="evenodd" clip-rule="evenodd" d="M137.754 103.09C137.812 102.953 138.711 101.743 138.848 101.509C138.496 101.528 137.011 101.567 136.776 101.567H133.708V99.3809H141.349V101.567C140.998 102.153 140.294 103.305 139.493 104.632C141.291 105.296 142.307 106.935 142.307 108.848C142.307 111.523 140.138 113.69 137.46 113.69C135.662 113.69 134.099 112.733 133.259 111.269V109.493H135.135C135.428 110.527 136.346 111.269 137.46 111.269C138.809 111.269 139.884 110.195 139.884 108.848C139.884 107.541 138.809 106.447 137.46 106.447C137.285 106.447 136.972 106.486 136.796 106.545V104.651L137.754 103.09Z" fill="white"/>
<path fill-rule="evenodd" clip-rule="evenodd" d="M146.391 107.404V111.25H148.639C149.733 111.25 150.554 110.391 150.554 109.376C150.554 108.263 149.733 107.404 148.639 107.404H146.391ZM146.391 101.567V105.218H148.365C149.459 105.218 150.202 104.359 150.202 103.402C150.202 102.485 149.459 101.567 148.404 101.567H146.391ZM143.968 113.436V99.3809H149.029C151.335 99.3809 152.742 101.352 152.742 103.129C152.742 104.456 151.961 105.628 150.808 106.174C152.098 106.565 153.114 108.048 153.114 109.473C153.094 111.542 151.531 113.436 149.147 113.436H143.968Z" fill="white"/>
<path fill-rule="evenodd" clip-rule="evenodd" d="M161.634 113.436V111.796C161.517 111.991 160.813 113.065 160.618 113.377C160.149 113.573 159.621 113.69 159.015 113.69C156.729 113.69 154.833 111.913 154.833 109.571V99.3809H157.257V109.18C157.257 110.469 158.234 111.406 159.426 111.406C160.618 111.386 161.595 110.449 161.595 109.161V99.3809H164.018V113.436H161.634Z" fill="white"/>
<path fill-rule="evenodd" clip-rule="evenodd" d="M170.975 113.436H168.533V101.567H165.328V99.3809H174.18V101.567H170.975V113.436Z" fill="white"/>
<path fill-rule="evenodd" clip-rule="evenodd" d="M182.193 113.436V111.796C182.075 111.991 181.372 113.065 181.176 113.377C180.707 113.573 180.18 113.69 179.593 113.69C177.287 113.69 175.392 111.913 175.392 109.571V99.3809H177.815V109.18C177.815 110.469 178.792 111.406 179.984 111.406C181.176 111.386 182.154 110.449 182.154 109.161V99.3809H184.577V113.436H182.193Z" fill="white"/>
<path fill-rule="evenodd" clip-rule="evenodd" d="M191.417 101.567C189.912 101.567 189.189 102.817 189.189 103.832V103.871C189.189 105.003 190.146 106.057 191.417 106.057H192.999V101.567H191.417ZM187.801 113.436H185.886V111.835C186.414 110.976 187.371 109.415 187.821 108.673C188.075 108.263 188.759 107.599 189.443 107.423C187.645 106.935 186.609 105.257 186.609 103.656C186.609 101.372 188.446 99.3809 190.889 99.3809H195.423V113.436H192.999V108.243H192.14C191.143 108.243 190.654 108.556 190.146 109.454L187.801 113.436Z" fill="white"/>
<path fill-rule="evenodd" clip-rule="evenodd" d="M32.1665 128.232V123.45L29.2547 128.232H27.9454V120.775H29.3915V125.538L32.3033 120.775H33.6127V128.232H32.1665Z" fill="white"/>
<path fill-rule="evenodd" clip-rule="evenodd" d="M40.2571 124.113C40.5893 124.113 40.8434 124.016 41.0388 123.84C41.2342 123.664 41.3319 123.411 41.3319 123.098C41.3319 122.786 41.2342 122.532 41.0388 122.357C40.8434 122.161 40.5893 122.083 40.2571 122.083H38.8891V124.113H40.2571ZM40.3157 120.775C40.687 120.775 40.9997 120.834 41.3124 120.951C41.6055 121.068 41.8791 121.224 42.0941 121.439C42.309 121.634 42.4849 121.888 42.6022 122.161C42.7194 122.454 42.778 122.767 42.778 123.098C42.778 123.45 42.7194 123.762 42.6022 124.035C42.4654 124.309 42.309 124.562 42.0941 124.777C41.8791 124.972 41.6055 125.129 41.3124 125.246C41.0192 125.363 40.687 125.421 40.3157 125.421H38.8891V128.232H37.443V120.775H40.3157Z" fill="white"/>
<path fill-rule="evenodd" clip-rule="evenodd" d="M46.1393 128.232V120.775H47.5659V124.309L49.9891 120.775H51.7284L49.227 124.27L51.9629 128.232H50.1845L47.5659 124.328V128.232H46.1393Z" fill="white"/>
<path fill-rule="evenodd" clip-rule="evenodd" d="M57.4347 126.964C57.3761 127.139 57.2784 127.295 57.1807 127.452C57.083 127.608 56.9657 127.744 56.8289 127.861C56.6921 127.979 56.5358 128.057 56.3599 128.135C56.184 128.193 55.9886 128.232 55.7736 128.232H54.8747V126.924H55.461C55.6759 126.924 55.8323 126.885 55.9495 126.807C56.0863 126.729 56.1645 126.612 56.2426 126.456L56.4576 125.948L54.0735 120.775H55.5978L57.1611 124.367L58.5682 120.775H60.0729L57.4347 126.964Z" fill="white"/>
<path fill-rule="evenodd" clip-rule="evenodd" d="M65.916 122.083V128.232H64.4699V122.083H62.5352V120.775H67.8702V122.083H65.916Z" fill="white"/>
<path fill-rule="evenodd" clip-rule="evenodd" d="M76.1758 125.929C76.0976 126.319 75.9999 126.671 75.824 126.963C75.6677 127.256 75.4527 127.491 75.2182 127.705C74.9837 127.9 74.7101 128.037 74.3975 128.135C74.0848 128.232 73.7721 128.291 73.4203 128.291C73.01 128.291 72.6387 128.213 72.3064 128.076C71.9742 127.94 71.6811 127.744 71.427 127.471C71.2316 127.276 71.0948 127.081 70.9971 126.866C70.8798 126.651 70.8212 126.436 70.7821 126.183C70.7431 125.948 70.704 125.675 70.704 125.402C70.704 125.129 70.6844 124.816 70.6844 124.504C70.6844 124.172 70.704 123.879 70.704 123.606C70.704 123.333 70.7431 123.059 70.7821 122.825C70.8212 122.571 70.8798 122.337 70.9971 122.142C71.0948 121.927 71.2316 121.712 71.427 121.537C71.6811 121.263 71.9742 121.068 72.3064 120.932C72.6387 120.795 73.01 120.717 73.4203 120.717C73.7721 120.717 74.1043 120.756 74.3975 120.853C74.7101 120.951 74.9837 121.107 75.2182 121.302C75.4527 121.498 75.6677 121.751 75.824 122.044C75.9999 122.337 76.0976 122.669 76.1758 123.079H74.6906C74.6124 122.766 74.4756 122.513 74.2802 122.318C74.0848 122.122 73.8112 122.005 73.4399 122.005C73.2249 122.005 73.049 122.044 72.8927 122.122C72.7364 122.181 72.5996 122.278 72.5019 122.396C72.4237 122.474 72.3651 122.552 72.326 122.649C72.2673 122.747 72.2283 122.864 72.2087 123.02C72.1892 123.176 72.1696 123.372 72.1501 123.606C72.1501 123.84 72.1306 124.152 72.1306 124.504C72.1306 124.855 72.1501 125.148 72.1501 125.382C72.1696 125.636 72.1892 125.831 72.2087 125.968C72.2283 126.124 72.2673 126.261 72.326 126.339C72.3651 126.436 72.4237 126.534 72.5019 126.612C72.5996 126.729 72.7364 126.807 72.8927 126.885C73.049 126.963 73.2249 126.983 73.4399 126.983C73.8112 126.983 74.0848 126.885 74.2802 126.69C74.4756 126.475 74.6124 126.241 74.6906 125.929H76.1758Z" fill="white"/>
<path fill-rule="evenodd" clip-rule="evenodd" d="M79.5566 128.232V120.775H81.0027V124.309L83.4064 120.775H85.1457L82.6443 124.27L85.3997 128.232H83.6018L81.0027 124.328V128.232H79.5566Z" fill="white"/>
<path fill-rule="evenodd" clip-rule="evenodd" d="M91.9073 124.367C91.9073 124.055 91.9073 123.801 91.9073 123.586C91.8877 123.372 91.8682 123.196 91.8487 123.04C91.8096 122.903 91.7705 122.786 91.7314 122.688C91.6728 122.591 91.6142 122.493 91.5555 122.415C91.321 122.142 91.0083 122.005 90.6175 122.005C90.4221 122.005 90.2462 122.044 90.0898 122.103C89.914 122.181 89.7772 122.278 89.6599 122.415C89.5036 122.591 89.3863 122.845 89.3668 123.196C89.3277 123.528 89.3082 123.938 89.3082 124.406V124.777C89.3082 125.168 89.3277 125.519 89.3472 125.851C89.3863 126.163 89.484 126.417 89.6599 126.593C89.9335 126.866 90.2462 126.983 90.6175 126.983C91.0083 126.983 91.321 126.866 91.5555 126.593C91.6142 126.514 91.6923 126.417 91.7314 126.319C91.79 126.222 91.8291 126.085 91.8487 125.909C91.8682 125.753 91.8877 125.558 91.9073 125.304C91.9073 125.05 91.9073 124.738 91.9073 124.367ZM93.3534 124.777C93.3534 125.011 93.3534 125.265 93.3534 125.499C93.3339 125.734 93.3143 125.968 93.2557 126.202C93.2166 126.436 93.1385 126.651 93.0407 126.866C92.943 127.081 92.8062 127.276 92.6108 127.471C92.1027 128.018 91.4187 128.291 90.6175 128.291C89.7967 128.291 89.1323 128.018 88.5851 127.471C88.4092 127.276 88.2724 127.081 88.1747 126.846C88.077 126.632 87.9988 126.397 87.9597 126.163C87.9011 125.929 87.8816 125.695 87.8816 125.46C87.862 125.226 87.862 125.011 87.862 124.816V124.192C87.862 123.821 87.8816 123.508 87.9011 123.235C87.9206 122.981 87.9597 122.727 87.9988 122.532C88.0574 122.318 88.1356 122.142 88.2333 121.986C88.331 121.829 88.4483 121.673 88.5851 121.537C89.1323 120.99 89.7967 120.717 90.6175 120.717C91.4187 120.717 92.0832 120.99 92.6108 121.537C92.8844 121.79 93.0603 122.122 93.1775 122.513C93.2948 122.884 93.3534 123.372 93.3534 123.977V124.777Z" fill="white"/>
<path fill-rule="evenodd" clip-rule="evenodd" d="M101.483 118.882C101.464 119.155 101.405 119.389 101.307 119.585C101.209 119.78 101.092 119.936 100.936 120.053C100.78 120.17 100.604 120.248 100.408 120.307C100.193 120.365 99.9978 120.385 99.7829 120.385C99.5874 120.385 99.3725 120.365 99.1771 120.307C98.9816 120.248 98.8058 120.17 98.6494 120.053C98.4931 119.936 98.3563 119.78 98.2586 119.585C98.1609 119.389 98.1022 119.155 98.0827 118.882H99.1184C99.138 119.097 99.1966 119.272 99.3139 119.37C99.4507 119.467 99.607 119.526 99.7829 119.526C99.9783 119.526 100.135 119.467 100.252 119.37C100.369 119.272 100.447 119.097 100.467 118.882H101.483ZM101.151 128.232V123.45L98.2586 128.232H96.9492V120.775H98.3954V125.538L101.307 120.775H102.597V128.232H101.151Z" fill="white"/>
<path fill-rule="evenodd" clip-rule="evenodd" d="M114.752 124.367C114.752 124.055 114.752 123.801 114.752 123.586C114.733 123.372 114.713 123.196 114.694 123.04C114.654 122.903 114.615 122.786 114.576 122.688C114.518 122.591 114.459 122.493 114.4 122.415C114.166 122.142 113.853 122.005 113.462 122.005C113.267 122.005 113.091 122.044 112.935 122.103C112.759 122.181 112.622 122.278 112.505 122.415C112.349 122.591 112.231 122.845 112.212 123.196C112.173 123.528 112.153 123.938 112.153 124.406V124.777C112.153 125.168 112.173 125.519 112.192 125.851C112.231 126.163 112.329 126.417 112.505 126.593C112.778 126.866 113.091 126.983 113.462 126.983C113.853 126.983 114.166 126.866 114.4 126.593C114.459 126.514 114.537 126.417 114.576 126.319C114.635 126.222 114.674 126.085 114.694 125.909C114.713 125.753 114.733 125.558 114.752 125.304C114.752 125.05 114.752 124.738 114.752 124.367ZM116.198 124.777C116.198 125.011 116.198 125.265 116.198 125.499C116.179 125.734 116.14 125.968 116.101 126.202C116.062 126.436 115.983 126.651 115.886 126.866C115.788 127.081 115.651 127.276 115.456 127.471C114.948 128.018 114.264 128.291 113.462 128.291C112.642 128.291 111.977 128.018 111.43 127.471C111.254 127.276 111.117 127.081 111.02 126.846C110.922 126.632 110.844 126.397 110.805 126.163C110.746 125.929 110.726 125.695 110.726 125.46C110.707 125.226 110.707 125.011 110.707 124.816V124.192C110.707 123.821 110.726 123.508 110.746 123.235C110.766 122.981 110.805 122.727 110.863 122.532C110.902 122.318 110.981 122.142 111.078 121.986C111.176 121.829 111.293 121.673 111.43 121.537C111.977 120.99 112.642 120.717 113.462 120.717C114.264 120.717 114.928 120.99 115.456 121.537C115.729 121.79 115.905 122.122 116.022 122.513C116.14 122.884 116.198 123.372 116.198 123.977V124.777Z" fill="white"/>
<path fill-rule="evenodd" clip-rule="evenodd" d="M123.761 125.909C123.761 125.597 123.664 125.343 123.468 125.168C123.292 124.972 123.038 124.875 122.706 124.875H121.24V126.924H122.706C123.038 126.924 123.292 126.827 123.468 126.651C123.664 126.475 123.761 126.222 123.761 125.909ZM125.188 125.909C125.188 126.241 125.149 126.554 125.031 126.846C124.914 127.12 124.758 127.373 124.562 127.569C124.347 127.783 124.093 127.94 123.8 128.057C123.488 128.174 123.155 128.232 122.784 128.232H119.794V120.775H124.719V122.083H121.24V123.586H122.765C123.155 123.586 123.488 123.645 123.781 123.762C124.074 123.86 124.328 124.035 124.543 124.231C124.758 124.445 124.914 124.68 125.031 124.972C125.149 125.246 125.188 125.558 125.188 125.909Z" fill="white"/>
<path fill-rule="evenodd" clip-rule="evenodd" d="M132.516 128.232V122.083H130.718V124.25C130.718 125.011 130.66 125.675 130.582 126.183C130.484 126.69 130.347 127.1 130.152 127.412C129.956 127.705 129.702 127.92 129.429 128.037C129.135 128.154 128.803 128.232 128.412 128.232H127.826V126.924H128.041C128.236 126.924 128.412 126.885 128.549 126.827C128.705 126.749 128.842 126.612 128.96 126.417C129.077 126.222 129.174 125.929 129.233 125.578C129.292 125.207 129.331 124.738 129.331 124.153V120.775H133.962V128.232H132.516Z" fill="white"/>
<path fill-rule="evenodd" clip-rule="evenodd" d="M140.314 122.981L139.356 125.675H141.213L140.314 122.981ZM142.053 128.232L141.603 126.905H138.946L138.496 128.232H136.991L139.708 120.775H140.841L143.558 128.232H142.053Z" fill="white"/>
<path fill-rule="evenodd" clip-rule="evenodd" d="M151.687 125.929C151.629 126.319 151.511 126.671 151.355 126.963C151.199 127.256 150.984 127.491 150.749 127.705C150.515 127.9 150.241 128.037 149.928 128.135C149.616 128.232 149.303 128.291 148.951 128.291C148.541 128.291 148.17 128.213 147.837 128.076C147.505 127.94 147.212 127.744 146.938 127.471C146.763 127.276 146.626 127.081 146.508 126.866C146.411 126.651 146.352 126.436 146.313 126.183C146.254 125.948 146.235 125.675 146.235 125.402C146.215 125.129 146.215 124.816 146.215 124.504C146.215 124.172 146.215 123.879 146.235 123.606C146.235 123.333 146.254 123.059 146.313 122.825C146.352 122.571 146.411 122.337 146.508 122.142C146.626 121.927 146.763 121.712 146.938 121.537C147.212 121.263 147.505 121.068 147.837 120.932C148.17 120.795 148.541 120.717 148.951 120.717C149.303 120.717 149.635 120.756 149.928 120.853C150.241 120.951 150.515 121.107 150.749 121.302C150.984 121.498 151.199 121.751 151.355 122.044C151.511 122.337 151.629 122.669 151.687 123.079H150.221C150.143 122.766 150.007 122.513 149.811 122.318C149.616 122.122 149.342 122.005 148.971 122.005C148.756 122.005 148.58 122.044 148.424 122.122C148.267 122.181 148.13 122.278 148.033 122.396C147.955 122.474 147.896 122.552 147.857 122.649C147.798 122.747 147.759 122.864 147.74 123.02C147.72 123.176 147.701 123.372 147.681 123.606C147.661 123.84 147.661 124.152 147.661 124.504C147.661 124.855 147.661 125.148 147.681 125.382C147.701 125.636 147.72 125.831 147.74 125.968C147.759 126.124 147.798 126.261 147.857 126.339C147.896 126.436 147.955 126.534 148.033 126.612C148.13 126.729 148.267 126.807 148.424 126.885C148.58 126.963 148.756 126.983 148.971 126.983C149.342 126.983 149.616 126.885 149.811 126.69C150.007 126.475 150.143 126.241 150.221 125.929H151.687Z" fill="white"/>
<path fill-rule="evenodd" clip-rule="evenodd" d="M157.784 122.083V128.232H156.338V122.083H154.404V120.775H159.739V122.083H157.784Z" fill="white"/>
<path fill-rule="evenodd" clip-rule="evenodd" d="M167.243 128.232V123.45L164.331 128.232H163.022V120.775H164.468V125.538L167.38 120.775H168.669V128.232H167.243Z" fill="white"/>
<path fill-rule="evenodd" clip-rule="evenodd" d="M0 92.8415L99.3725 84.877L198.725 92.8415H0Z" fill="white"/>
<path fill-rule="evenodd" clip-rule="evenodd" d="M102.362 36.1333H87.9207V50.364H98.9621V40.6036H102.362V36.1333Z" fill="white"/>
<path fill-rule="evenodd" clip-rule="evenodd" d="M87.9207 73.6912H98.9621V51.2812H87.9207V73.6912Z" fill="white"/>
<path fill-rule="evenodd" clip-rule="evenodd" d="M118.094 73.164H129.585V51.0859H118.094V73.164Z" fill="white"/>
<path fill-rule="evenodd" clip-rule="evenodd" d="M98.9621 84.1545V74.4526H87.9207V85.0329L98.9621 84.1545Z" fill="white"/>
<path fill-rule="evenodd" clip-rule="evenodd" d="M129.585 86.5363V73.9258H118.094V85.6188L129.585 86.5363Z" fill="white"/>
<path fill-rule="evenodd" clip-rule="evenodd" d="M117.175 85.5406V15.9487H107.268V40.6036H110.687V85.0136L117.175 85.5406Z" fill="white"/>
<path fill-rule="evenodd" clip-rule="evenodd" d="M109.769 84.9549V41.521H99.8611V84.1546L109.769 84.9549Z" fill="white"/>
<path fill-rule="evenodd" clip-rule="evenodd" d="M77.876 85.8332V63.3062H66.3851V86.7507L77.876 85.8332Z" fill="white"/>
<path fill-rule="evenodd" clip-rule="evenodd" d="M78.7945 0V85.7552L87.0023 85.111V35.2156H88.7025V0H78.7945Z" fill="white"/>
</svg>
