<svg width="168" height="110" viewBox="0 0 168 110" fill="none" xmlns="http://www.w3.org/2000/svg">
<path fill-rule="evenodd" clip-rule="evenodd" d="M4.84051 91.4209V96.5552H2.79193V84.5917H4.84051V89.5599H5.83176L8.65682 84.5917H10.2593V86.0041C9.79675 86.7518 7.86382 89.9587 7.51688 90.507C8.09511 91.504 9.81327 94.3287 10.3419 95.1927V96.5552H8.70638C8.21075 95.6912 6.01349 91.8529 5.7822 91.4209H4.84051Z" fill="#22689E"/>
<path fill-rule="evenodd" clip-rule="evenodd" d="M13.0844 92.7834C13.0844 93.8967 13.9931 94.8272 15.1165 94.8272C16.2564 94.8272 17.1651 93.8967 17.1651 92.7834V88.3802C17.1651 87.2503 16.2564 86.3198 15.1165 86.3198C13.9931 86.3198 13.0844 87.2503 13.0844 88.3802V92.7834ZM11.0193 88.2971C11.0193 86.0373 12.8531 84.3591 15.1165 84.3591C17.3963 84.3591 19.2302 86.0373 19.2302 88.2971V92.8499C19.2302 95.1097 17.3963 96.7879 15.1165 96.7879C12.8531 96.7879 11.0193 95.1097 11.0193 92.8499V88.2971Z" fill="#22689E"/>
<path fill-rule="evenodd" clip-rule="evenodd" d="M22.7986 86.4527V90.4239H24.0046C25.3593 90.4073 25.9706 89.294 25.9871 88.43C25.9871 87.5826 25.3758 86.4527 24.0046 86.4527H22.7986ZM22.7986 92.2849V96.5552H20.75V84.5917H24.335C26.6645 84.5917 28.1513 86.5358 28.1513 88.4466C28.1348 90.4073 26.5818 92.2849 24.335 92.2849H22.7986Z" fill="#22689E"/>
<path fill-rule="evenodd" clip-rule="evenodd" d="M34.8753 86.4527H31.3894V96.5552H29.3408V84.5917H36.9239V96.5552H34.8753V86.4527Z" fill="#22689E"/>
<path fill-rule="evenodd" clip-rule="evenodd" d="M40.5089 92.7834C40.5089 93.8967 41.4175 94.8272 42.5409 94.8272C43.6809 94.8272 44.606 93.8967 44.606 92.7834V88.3802C44.606 87.2503 43.6809 86.3198 42.5409 86.3198C41.4175 86.3198 40.5089 87.2503 40.5089 88.3802V92.7834ZM38.4603 88.2971C38.4603 86.0373 40.2941 84.3591 42.5409 84.3591C44.8208 84.3591 46.6546 86.0373 46.6546 88.2971V92.8499C46.6546 95.1097 44.8208 96.7879 42.5409 96.7879C40.2941 96.7879 38.4603 95.1097 38.4603 92.8499V88.2971Z" fill="#22689E"/>
<path fill-rule="evenodd" clip-rule="evenodd" d="M50.2397 86.4527V90.4239H51.4457C52.8004 90.4073 53.4116 89.294 53.4282 88.43C53.4282 87.5826 52.8169 86.4527 51.4457 86.4527H50.2397ZM50.2397 92.2849V96.5552H48.1746V84.5917H51.7596C54.089 84.5917 55.5759 86.5358 55.5759 88.4466C55.5594 90.4073 54.0229 92.2849 51.7596 92.2849H50.2397Z" fill="#22689E"/>
<path fill-rule="evenodd" clip-rule="evenodd" d="M57.8722 91.3877H60.4495L59.1443 86.569L57.8722 91.3877ZM60.9286 93.1822H57.3766L56.4845 96.5552H54.7168V95.0432C55.0967 93.8302 57.4262 86.2201 57.9053 84.5917H60.3999C60.7799 85.8213 63.3076 94.1459 63.5884 95.0432V96.5552H61.8372L60.9286 93.1822Z" fill="#22689E"/>
<path fill-rule="evenodd" clip-rule="evenodd" d="M70.7585 96.0235C71.3367 96.173 71.948 96.6217 72.2949 97.1368C72.4932 97.4525 72.7079 97.8014 72.9557 98.1337V99.4796H71.4028L70.4115 97.8014C69.9655 97.0703 69.4864 96.738 68.6603 96.738H68.4456C66.3805 96.738 64.5632 95.2259 64.5632 93.0492V84.5917H66.6118V92.8831C66.6118 93.9797 67.4543 94.7773 68.4456 94.7773C69.4533 94.7607 70.2794 93.9631 70.2794 92.8665V84.5917H72.3445V93.0492C72.3445 94.3619 71.6671 95.3921 70.7585 96.0235Z" fill="#22689E"/>
<path fill-rule="evenodd" clip-rule="evenodd" d="M79.8945 96.5552V95.1595C79.7954 95.3256 79.2006 96.2395 79.0189 96.5054C78.6389 96.6715 78.1929 96.7712 77.6807 96.7712C75.7478 96.7712 74.1453 95.2592 74.1453 93.2653V84.5917H76.1938V92.9329C76.1938 94.0296 77.0199 94.8272 78.0277 94.8272C79.0189 94.8105 79.8615 94.013 79.8615 92.9163V84.5917H81.9101V96.5552H79.8945Z" fill="#22689E"/>
<path fill-rule="evenodd" clip-rule="evenodd" d="M87.6924 86.4527C86.4037 86.4527 85.7925 87.5161 85.7925 88.3802V88.4134C85.7925 89.3771 86.6185 90.2744 87.6924 90.2744H89.0305V86.4527H87.6924ZM84.636 96.5552H83.017V95.1927C83.463 94.4616 84.2726 93.1323 84.6525 92.5009C84.8673 92.152 85.4455 91.587 86.0238 91.4375C84.4873 91.0221 83.6282 89.5931 83.6282 88.2306C83.6282 86.2866 85.1647 84.5917 87.2463 84.5917H91.0791V96.5552H89.0305V92.1354H88.3036C87.4611 92.1354 87.0315 92.4012 86.6185 93.1656L84.636 96.5552Z" fill="#22689E"/>
<path fill-rule="evenodd" clip-rule="evenodd" d="M99.0751 86.4527V90.4239H100.281C101.636 90.4073 102.247 89.294 102.264 88.43C102.264 87.5826 101.652 86.4527 100.281 86.4527H99.0751ZM99.0751 92.2849V96.5552H97.0266V84.5917H100.595C102.924 84.5917 104.428 86.5358 104.428 88.4466C104.411 90.4073 102.858 92.2849 100.595 92.2849H99.0751Z" fill="#22689E"/>
<path fill-rule="evenodd" clip-rule="evenodd" d="M106.708 91.3877H109.302L107.98 86.569L106.708 91.3877ZM109.764 93.1822H106.229L105.32 96.5552H103.552V95.0432C103.932 93.8302 106.278 86.2201 106.741 84.5917H109.252C109.615 85.8213 112.143 94.1459 112.44 95.0432V96.5552H110.673L109.764 93.1822Z" fill="#22689E"/>
<path fill-rule="evenodd" clip-rule="evenodd" d="M116.455 87.7488C116.505 87.6325 117.265 86.6023 117.38 86.4029C117.083 86.4195 115.827 86.4527 115.629 86.4527H113.035V84.5917H119.495V86.4527C119.197 86.9512 118.603 87.9315 117.925 89.0614C119.445 89.6264 120.304 91.0221 120.304 92.6505C120.304 94.9268 118.471 96.7712 116.207 96.7712C114.687 96.7712 113.366 95.957 112.655 94.7108V93.1988H114.241C114.489 94.0794 115.266 94.7108 116.207 94.7108C117.347 94.7108 118.256 93.797 118.256 92.6505C118.256 91.5372 117.347 90.6067 116.207 90.6067C116.059 90.6067 115.794 90.6399 115.646 90.6898V89.078L116.455 87.7488Z" fill="#22689E"/>
<path fill-rule="evenodd" clip-rule="evenodd" d="M123.757 91.4209V94.6942H125.657C126.582 94.6942 127.276 93.9631 127.276 93.0991C127.276 92.152 126.582 91.4209 125.657 91.4209H123.757ZM123.757 86.4527V89.5599H125.426C126.351 89.5599 126.979 88.8288 126.979 88.0146C126.979 87.2337 126.351 86.4527 125.459 86.4527H123.757ZM121.709 96.5552V84.5917H125.987C127.937 84.5917 129.126 86.2699 129.126 87.782C129.126 88.9119 128.466 89.9088 127.491 90.3741C128.581 90.7064 129.44 91.9692 129.44 93.1822C129.424 94.9435 128.102 96.5552 126.087 96.5552H121.709Z" fill="#22689E"/>
<path fill-rule="evenodd" clip-rule="evenodd" d="M136.643 96.5552V95.1595C136.544 95.3256 135.95 96.2395 135.784 96.5054C135.388 96.6715 134.942 96.7712 134.43 96.7712C132.497 96.7712 130.894 95.2592 130.894 93.2653V84.5917H132.943V92.9329C132.943 94.0296 133.769 94.8272 134.777 94.8272C135.784 94.8105 136.61 94.013 136.61 92.9163V84.5917H138.659V96.5552H136.643Z" fill="#22689E"/>
<path fill-rule="evenodd" clip-rule="evenodd" d="M144.54 96.5552H142.475V86.4527H139.766V84.5917H147.25V86.4527H144.54V96.5552Z" fill="#22689E"/>
<path fill-rule="evenodd" clip-rule="evenodd" d="M154.023 96.5552V95.1595C153.924 95.3256 153.329 96.2395 153.164 96.5054C152.768 96.6715 152.322 96.7712 151.826 96.7712C149.877 96.7712 148.274 95.2592 148.274 93.2653V84.5917H150.323V92.9329C150.323 94.0296 151.149 94.8272 152.156 94.8272C153.164 94.8105 153.99 94.013 153.99 92.9163V84.5917H156.039V96.5552H154.023Z" fill="#22689E"/>
<path fill-rule="evenodd" clip-rule="evenodd" d="M161.821 86.4527C160.549 86.4527 159.938 87.5161 159.938 88.3802V88.4134C159.938 89.3771 160.747 90.2744 161.821 90.2744H163.159V86.4527H161.821ZM158.765 96.5552H157.146V95.1927C157.592 94.4616 158.401 93.1323 158.781 92.5009C158.996 92.152 159.574 91.587 160.153 91.4375C158.633 91.0221 157.757 89.5931 157.757 88.2306C157.757 86.2866 159.31 84.5917 161.375 84.5917H165.208V96.5552H163.159V92.1354H162.432C161.59 92.1354 161.177 92.4012 160.747 93.1656L158.765 96.5552Z" fill="#22689E"/>
<path fill-rule="evenodd" clip-rule="evenodd" d="M27.1932 109.15V105.079L24.7316 109.15H23.6247V102.803H24.8473V106.857L27.3089 102.803H28.4158V109.15H27.1932Z" fill="#2388C2"/>
<path fill-rule="evenodd" clip-rule="evenodd" d="M34.0328 105.644C34.3137 105.644 34.5285 105.561 34.6937 105.412C34.8589 105.262 34.9415 105.046 34.9415 104.78C34.9415 104.514 34.8589 104.298 34.6937 104.149C34.5285 103.983 34.3137 103.916 34.0328 103.916H32.8764V105.644H34.0328ZM34.0824 102.803C34.3963 102.803 34.6606 102.853 34.925 102.952C35.1728 103.052 35.4041 103.185 35.5858 103.368C35.7675 103.534 35.9162 103.75 36.0153 103.983C36.1145 104.232 36.164 104.498 36.164 104.78C36.164 105.079 36.1145 105.345 36.0153 105.578C35.8997 105.81 35.7675 106.026 35.5858 106.209C35.4041 106.375 35.1728 106.508 34.925 106.608C34.6772 106.708 34.3963 106.757 34.0824 106.757H32.8764V109.15H31.6538V102.803H34.0824Z" fill="#2388C2"/>
<path fill-rule="evenodd" clip-rule="evenodd" d="M39.0056 109.15V102.803H40.2116V105.81L42.2602 102.803H43.7305L41.6159 105.777L43.9288 109.15H42.4254L40.2116 105.827V109.15H39.0056Z" fill="#2388C2"/>
<path fill-rule="evenodd" clip-rule="evenodd" d="M48.5546 108.07C48.5051 108.22 48.4225 108.353 48.3398 108.486C48.2572 108.618 48.1581 108.735 48.0425 108.834C47.9268 108.934 47.7947 109.001 47.646 109.067C47.4973 109.117 47.3321 109.15 47.1504 109.15H46.3904V108.037H46.886C47.0677 108.037 47.1999 108.004 47.299 107.937C47.4147 107.871 47.4808 107.771 47.5469 107.638L47.7286 107.206L45.713 102.803H47.0017L48.3233 105.86L49.5128 102.803H50.7849L48.5546 108.07Z" fill="#2388C2"/>
<path fill-rule="evenodd" clip-rule="evenodd" d="M55.7246 103.916V109.15H54.5021V103.916H52.8665V102.803H57.3767V103.916H55.7246Z" fill="#2388C2"/>
<path fill-rule="evenodd" clip-rule="evenodd" d="M64.3981 107.189C64.332 107.522 64.2494 107.821 64.1007 108.07C63.9685 108.319 63.7868 108.519 63.5885 108.701C63.3903 108.868 63.159 108.984 62.8947 109.067C62.6303 109.15 62.366 109.2 62.0686 109.2C61.7217 109.2 61.4078 109.133 61.1269 109.017C60.8461 108.901 60.5983 108.735 60.3835 108.502C60.2183 108.336 60.1026 108.17 60.02 107.987C59.9209 107.804 59.8714 107.621 59.8383 107.405C59.8053 107.206 59.7722 106.973 59.7722 106.741C59.7722 106.508 59.7557 106.242 59.7557 105.976C59.7557 105.694 59.7722 105.445 59.7722 105.212C59.7722 104.979 59.8053 104.747 59.8383 104.547C59.8714 104.331 59.9209 104.132 60.02 103.966C60.1026 103.783 60.2183 103.6 60.3835 103.451C60.5983 103.218 60.8461 103.052 61.1269 102.936C61.4078 102.819 61.7217 102.753 62.0686 102.753C62.366 102.753 62.6468 102.786 62.8947 102.869C63.159 102.952 63.3903 103.085 63.5885 103.251C63.7868 103.418 63.9685 103.634 64.1007 103.883C64.2494 104.132 64.332 104.415 64.3981 104.763H63.1425C63.0764 104.498 62.9607 104.282 62.7955 104.115C62.6303 103.949 62.399 103.85 62.0851 103.85C61.9034 103.85 61.7547 103.883 61.6226 103.949C61.4904 103.999 61.3747 104.082 61.2921 104.182C61.2261 104.248 61.1765 104.315 61.1435 104.398C61.0939 104.481 61.0609 104.581 61.0443 104.714C61.0278 104.847 61.0113 105.013 60.9948 105.212C60.9948 105.411 60.9782 105.677 60.9782 105.976C60.9782 106.276 60.9948 106.525 60.9948 106.724C61.0113 106.94 61.0278 107.106 61.0443 107.223C61.0609 107.356 61.0939 107.472 61.1435 107.538C61.1765 107.621 61.2261 107.704 61.2921 107.771C61.3747 107.871 61.4904 107.937 61.6226 108.004C61.7547 108.07 61.9034 108.087 62.0851 108.087C62.399 108.087 62.6303 108.004 62.7955 107.837C62.9607 107.655 63.0764 107.455 63.1425 107.189H64.3981Z" fill="#2388C2"/>
<path fill-rule="evenodd" clip-rule="evenodd" d="M67.2562 109.15V102.803H68.4787V105.81L70.5108 102.803H71.9811L69.8665 105.777L72.1959 109.15H70.676L68.4787 105.827V109.15H67.2562Z" fill="#2388C2"/>
<path fill-rule="evenodd" clip-rule="evenodd" d="M77.6973 105.86C77.6973 105.594 77.6973 105.378 77.6973 105.195C77.6808 105.013 77.6642 104.863 77.6477 104.73C77.6147 104.614 77.5816 104.514 77.5486 104.431C77.499 104.348 77.4495 104.265 77.3999 104.199C77.2017 103.966 76.9373 103.85 76.6069 103.85C76.4417 103.85 76.293 103.883 76.1608 103.933C76.0122 103.999 75.8965 104.082 75.7974 104.199C75.6652 104.348 75.5661 104.564 75.5496 104.863C75.5165 105.146 75.5 105.495 75.5 105.893V106.209C75.5 106.541 75.5165 106.84 75.533 107.123C75.5661 107.389 75.6487 107.605 75.7974 107.754C76.0287 107.987 76.293 108.087 76.6069 108.087C76.9373 108.087 77.2017 107.987 77.3999 107.754C77.4495 107.688 77.5156 107.605 77.5486 107.522C77.5982 107.439 77.6312 107.322 77.6477 107.173C77.6642 107.04 77.6808 106.874 77.6973 106.658C77.6973 106.442 77.6973 106.176 77.6973 105.86ZM78.9198 106.209C78.9198 106.408 78.9198 106.624 78.9198 106.824C78.9033 107.023 78.8868 107.223 78.8372 107.422C78.8042 107.621 78.7381 107.804 78.6555 107.987C78.5729 108.17 78.4572 108.336 78.292 108.502C77.8625 108.967 77.2843 109.2 76.6069 109.2C75.913 109.2 75.3513 108.967 74.8887 108.502C74.74 108.336 74.6244 108.17 74.5418 107.97C74.4592 107.788 74.3931 107.588 74.3601 107.389C74.3105 107.189 74.294 106.99 74.294 106.791C74.2775 106.591 74.2775 106.408 74.2775 106.242V105.711C74.2775 105.395 74.294 105.129 74.3105 104.896C74.327 104.68 74.3601 104.464 74.3931 104.298C74.4427 104.115 74.5088 103.966 74.5914 103.833C74.674 103.7 74.7731 103.567 74.8887 103.451C75.3513 102.986 75.913 102.753 76.6069 102.753C77.2843 102.753 77.846 102.986 78.292 103.451C78.5233 103.667 78.672 103.949 78.7711 104.282C78.8703 104.597 78.9198 105.013 78.9198 105.528V106.209Z" fill="#2388C2"/>
<path fill-rule="evenodd" clip-rule="evenodd" d="M85.7925 101.191C85.776 101.424 85.7264 101.623 85.6438 101.789C85.5612 101.955 85.4621 102.088 85.3299 102.188C85.1978 102.288 85.0491 102.354 84.8839 102.404C84.7021 102.454 84.5369 102.471 84.3552 102.471C84.19 102.471 84.0083 102.454 83.8431 102.404C83.6779 102.354 83.5292 102.288 83.397 102.188C83.2648 102.088 83.1492 101.955 83.0666 101.789C82.984 101.623 82.9344 101.424 82.9179 101.191H83.7935C83.81 101.374 83.8596 101.523 83.9587 101.606C84.0744 101.69 84.2065 101.739 84.3552 101.739C84.5204 101.739 84.6526 101.69 84.7517 101.606C84.8508 101.523 84.9169 101.374 84.9334 101.191H85.7925ZM85.5117 109.15V105.079L83.0666 109.15H81.9597V102.803H83.1822V106.857L85.6438 102.803H86.7342V109.15H85.5117Z" fill="#2388C2"/>
<path fill-rule="evenodd" clip-rule="evenodd" d="M97.0101 105.86C97.0101 105.594 97.0101 105.378 97.0101 105.195C96.9936 105.013 96.9771 104.863 96.9606 104.73C96.9275 104.614 96.8945 104.514 96.8614 104.431C96.8119 104.348 96.7623 104.265 96.7128 104.199C96.5145 103.966 96.2502 103.85 95.9198 103.85C95.7546 103.85 95.6059 103.883 95.4737 103.933C95.325 103.999 95.2094 104.082 95.1102 104.199C94.9781 104.348 94.879 104.564 94.8624 104.863C94.8294 105.146 94.8129 105.495 94.8129 105.893V106.209C94.8129 106.541 94.8294 106.84 94.8459 107.123C94.879 107.389 94.9616 107.605 95.1102 107.754C95.3415 107.987 95.6059 108.087 95.9198 108.087C96.2502 108.087 96.5145 107.987 96.7128 107.754C96.7623 107.688 96.8284 107.605 96.8614 107.522C96.911 107.439 96.944 107.322 96.9606 107.173C96.9771 107.04 96.9936 106.874 97.0101 106.658C97.0101 106.442 97.0101 106.176 97.0101 105.86ZM98.2327 106.209C98.2327 106.408 98.2327 106.624 98.2327 106.824C98.2161 107.023 98.1831 107.223 98.1501 107.422C98.117 107.621 98.0509 107.804 97.9683 107.987C97.8857 108.17 97.7701 108.336 97.6049 108.502C97.1753 108.967 96.5971 109.2 95.9198 109.2C95.2259 109.2 94.6642 108.967 94.2016 108.502C94.0529 108.336 93.9373 108.17 93.8547 107.97C93.7721 107.788 93.706 107.588 93.6729 107.389C93.6234 107.189 93.6069 106.99 93.6069 106.791C93.5903 106.591 93.5903 106.408 93.5903 106.242V105.711C93.5903 105.395 93.6069 105.129 93.6234 104.896C93.6399 104.68 93.6729 104.464 93.7225 104.298C93.7555 104.115 93.8216 103.966 93.9042 103.833C93.9868 103.7 94.086 103.567 94.2016 103.451C94.6642 102.986 95.2259 102.753 95.9198 102.753C96.5971 102.753 97.1588 102.986 97.6049 103.451C97.8362 103.667 97.9849 103.949 98.084 104.282C98.1831 104.597 98.2327 105.013 98.2327 105.528V106.209Z" fill="#2388C2"/>
<path fill-rule="evenodd" clip-rule="evenodd" d="M104.626 107.173C104.626 106.907 104.544 106.691 104.378 106.541C104.23 106.375 104.015 106.292 103.734 106.292H102.495V108.037H103.734C104.015 108.037 104.23 107.954 104.378 107.804C104.544 107.655 104.626 107.439 104.626 107.173ZM105.832 107.173C105.832 107.455 105.799 107.721 105.7 107.97C105.601 108.203 105.469 108.419 105.304 108.585C105.122 108.768 104.907 108.901 104.659 109.001C104.395 109.1 104.114 109.15 103.8 109.15H101.273V102.803H105.436V103.916H102.495V105.196H103.784C104.114 105.196 104.395 105.245 104.643 105.345C104.891 105.428 105.105 105.578 105.287 105.744C105.469 105.927 105.601 106.126 105.7 106.375C105.799 106.608 105.832 106.874 105.832 107.173Z" fill="#2388C2"/>
<path fill-rule="evenodd" clip-rule="evenodd" d="M112.028 109.15V103.916H110.508V105.76C110.508 106.409 110.458 106.973 110.392 107.405C110.309 107.837 110.194 108.186 110.029 108.452C109.863 108.702 109.649 108.884 109.417 108.984C109.169 109.084 108.889 109.15 108.558 109.15H108.063V108.037H108.244C108.41 108.037 108.558 108.004 108.674 107.954C108.806 107.887 108.922 107.771 109.021 107.605C109.12 107.439 109.203 107.189 109.252 106.89C109.302 106.575 109.335 106.176 109.335 105.677V102.803H113.25V109.15H112.028Z" fill="#2388C2"/>
<path fill-rule="evenodd" clip-rule="evenodd" d="M118.619 104.68L117.81 106.973H119.379L118.619 104.68ZM120.09 109.15L119.71 108.02H117.463L117.083 109.15H115.811L118.107 102.803H119.065L121.362 109.15H120.09Z" fill="#2388C2"/>
<path fill-rule="evenodd" clip-rule="evenodd" d="M128.234 107.189C128.185 107.522 128.086 107.821 127.954 108.07C127.821 108.319 127.64 108.519 127.441 108.701C127.243 108.868 127.012 108.984 126.748 109.067C126.483 109.15 126.219 109.2 125.922 109.2C125.575 109.2 125.261 109.133 124.98 109.017C124.699 108.901 124.451 108.735 124.22 108.502C124.071 108.336 123.956 108.17 123.856 107.987C123.774 107.804 123.724 107.621 123.691 107.405C123.642 107.206 123.625 106.973 123.625 106.741C123.609 106.508 123.609 106.242 123.609 105.976C123.609 105.694 123.609 105.445 123.625 105.212C123.625 104.979 123.642 104.747 123.691 104.547C123.724 104.331 123.774 104.132 123.856 103.966C123.956 103.783 124.071 103.6 124.22 103.451C124.451 103.218 124.699 103.052 124.98 102.936C125.261 102.819 125.575 102.753 125.922 102.753C126.219 102.753 126.5 102.786 126.748 102.869C127.012 102.952 127.243 103.085 127.441 103.251C127.64 103.418 127.821 103.634 127.954 103.883C128.086 104.132 128.185 104.415 128.234 104.763H126.995C126.929 104.498 126.814 104.282 126.648 104.115C126.483 103.949 126.252 103.85 125.938 103.85C125.756 103.85 125.608 103.883 125.475 103.949C125.343 103.999 125.228 104.082 125.145 104.182C125.079 104.248 125.029 104.315 124.996 104.398C124.947 104.481 124.914 104.581 124.897 104.714C124.881 104.847 124.864 105.013 124.848 105.212C124.831 105.411 124.831 105.677 124.831 105.976C124.831 106.276 124.831 106.525 124.848 106.724C124.864 106.94 124.881 107.106 124.897 107.223C124.914 107.356 124.947 107.472 124.996 107.538C125.029 107.621 125.079 107.704 125.145 107.771C125.228 107.871 125.343 107.937 125.475 108.004C125.608 108.07 125.756 108.087 125.938 108.087C126.252 108.087 126.483 108.004 126.648 107.837C126.814 107.655 126.929 107.455 126.995 107.189H128.234Z" fill="#2388C2"/>
<path fill-rule="evenodd" clip-rule="evenodd" d="M133.389 103.916V109.15H132.166V103.916H130.531V102.803H135.041V103.916H133.389Z" fill="#2388C2"/>
<path fill-rule="evenodd" clip-rule="evenodd" d="M141.385 109.15V105.079L138.923 109.15H137.816V102.803H139.039V106.857L141.501 102.803H142.591V109.15H141.385Z" fill="#2388C2"/>
<path fill-rule="evenodd" clip-rule="evenodd" d="M0 79.0255L84.0083 72.2462L168 79.0255H0Z" fill="#2388C2"/>
<path fill-rule="evenodd" clip-rule="evenodd" d="M86.5359 30.7562H74.3271V42.8692H83.6613V34.5612H86.5359V30.7562Z" fill="#2388C2"/>
<path fill-rule="evenodd" clip-rule="evenodd" d="M74.3271 62.7252H83.6613V43.6501H74.3271V62.7252Z" fill="#2388C2"/>
<path fill-rule="evenodd" clip-rule="evenodd" d="M99.8352 62.2766H109.549V43.4839H99.8352V62.2766Z" fill="#2388C2"/>
<path fill-rule="evenodd" clip-rule="evenodd" d="M83.6613 71.6314V63.3732H74.3271V72.3791L83.6613 71.6314Z" fill="#2388C2"/>
<path fill-rule="evenodd" clip-rule="evenodd" d="M109.549 73.6585V62.9246H99.8352V72.8776L109.549 73.6585Z" fill="#2388C2"/>
<path fill-rule="evenodd" clip-rule="evenodd" d="M99.0587 72.8111V13.5753H90.6827V34.5612H93.5738V72.3625L99.0587 72.8111Z" fill="#2388C2"/>
<path fill-rule="evenodd" clip-rule="evenodd" d="M92.7973 72.3126V35.3421H84.4213V71.6313L92.7973 72.3126Z" fill="#2388C2"/>
<path fill-rule="evenodd" clip-rule="evenodd" d="M65.8354 73.0604V53.8856H56.1212V73.8413L65.8354 73.0604Z" fill="#2388C2"/>
<path fill-rule="evenodd" clip-rule="evenodd" d="M66.6118 0V72.9939L73.5506 72.4455V29.9752H74.9879V0H66.6118Z" fill="#2388C2"/>
</svg>
